<svg width="24" height="38" viewBox="0 0 24 38" fill="none" xmlns="http://www.w3.org/2000/svg">
<g id="OBJECTS" clip-path="url(#clip0_873_341)">
<path id="Vector" d="M12.0011 37.7405C18.4922 37.7405 23.7542 29.3501 23.7542 19C23.7542 8.64992 18.4922 0.259521 12.0011 0.259521C5.51008 0.259521 0.248047 8.64992 0.248047 19C0.248047 29.3501 5.51008 37.7405 12.0011 37.7405Z" stroke="#696969" stroke-linecap="round" stroke-linejoin="round"/>
<path id="Vector_2" d="M23.7528 18.9989L12.001 6.70905L0.249156 18.9989L12.001 31.2889L23.7528 18.9989Z" stroke="#696969" stroke-linecap="round" stroke-linejoin="round"/>
<path id="Vector_3" d="M20.6375 6.29614H3.36279V31.7013H20.6375V6.29614Z" stroke="#696969" stroke-linecap="round" stroke-linejoin="round"/>
<path id="Vector_4" d="M6.4624 2.46811L9.58431 6.29614" stroke="#696969" stroke-linecap="round" stroke-linejoin="round"/>
<path id="Vector_5" d="M14.416 6.29614L17.5379 2.46811" stroke="#696969" stroke-linecap="round" stroke-linejoin="round"/>
<path id="Vector_6" d="M3.36279 6.29613L7.4724 11.1207L12.0014 0.259521L16.2202 11.1207L20.6375 6.29613" stroke="#696969" stroke-linecap="round" stroke-linejoin="round"/>
<path id="Vector_7" d="M3.36279 31.7013L7.4724 26.8766L12.0014 37.7405L16.2202 26.8766L20.6375 31.7013" stroke="#696969" stroke-linecap="round" stroke-linejoin="round"/>
<path id="Vector_8" d="M19.9715 20.9977C21.0268 16.3938 18.3135 11.767 13.9112 10.6634C9.5089 9.55985 5.08467 12.3974 4.02939 17.0012C2.97412 21.6051 5.68742 26.2319 10.0897 27.3355C14.492 28.4391 18.9162 25.6016 19.9715 20.9977Z" stroke="#696969" stroke-linecap="round" stroke-linejoin="round"/>
</g>
<defs>
<clipPath id="clip0_873_341">
<rect width="24" height="38" fill="white"/>
</clipPath>
</defs>
</svg>
