<svg width="30" height="38" viewBox="0 0 30 38" fill="none" xmlns="http://www.w3.org/2000/svg">
<g id="OBJECTS" clip-path="url(#clip0_873_413)">
<path id="Vector" d="M23.8148 37.4723H5.86284L0.269531 31.8754V6.5116L5.86284 0.914734H23.8148L29.4081 6.5116V31.8754L23.8148 37.4723Z" stroke="#BCBCBC" stroke-linecap="round" stroke-linejoin="round"/>
<path id="Vector_2" d="M22.0929 33.9783H7.57886L3.05518 29.4518V8.9353L7.57886 4.41953H22.0929L26.622 8.9353V29.4518L22.0929 33.9783Z" stroke="#BCBCBC" stroke-linecap="round" stroke-linejoin="round"/>
<path id="Vector_3" d="M19.5441 28.7724H10.133L7.20166 25.8391V12.5479L10.133 9.61469H19.5441L22.4755 12.5479V25.8391L19.5441 28.7724Z" stroke="#BCBCBC" stroke-linecap="round" stroke-linejoin="round"/>
<path id="Vector_4" d="M5.86279 0.914734L10.1332 9.61468" stroke="#BCBCBC" stroke-linecap="round" stroke-linejoin="round"/>
<path id="Vector_5" d="M23.8147 37.4723L19.5443 28.7724L14.8401 37.4723L10.1332 28.7724L5.86279 37.4723" stroke="#BCBCBC" stroke-linecap="round" stroke-linejoin="round"/>
<path id="Vector_6" d="M19.5444 28.7724L29.4082 31.8754L22.4758 25.8391L29.4082 19.1935L22.4758 12.5479L29.4082 6.5116L19.5444 9.61468L23.8149 0.914734" stroke="#BCBCBC" stroke-linecap="round" stroke-linejoin="round"/>
<path id="Vector_7" d="M10.1333 28.7724L0.269531 31.8754L7.20189 25.8391L0.269531 19.1935L7.20189 12.5479L0.269531 6.5116L10.1333 9.61468L14.8402 0.914734L19.5444 9.61468" stroke="#BCBCBC" stroke-linecap="round" stroke-linejoin="round"/>
</g>
<defs>
<clipPath id="clip0_873_413">
<rect width="29.6774" height="37.0968" fill="white" transform="translate(0 0.645142)"/>
</clipPath>
</defs>
</svg>
