<svg width="21" height="38" viewBox="0 0 21 38" fill="none" xmlns="http://www.w3.org/2000/svg">
<g id="OBJECTS" clip-path="url(#clip0_873_383)">
<path id="Vector" d="M20.5384 19.1826C20.5384 29.2928 10.3869 37.4883 10.3869 37.4883C10.3869 37.4883 0.235352 29.3025 0.235352 19.1826C0.235352 9.0626 10.3869 0.889069 10.3869 0.889069C10.3869 0.889069 20.5384 9.08456 20.5384 19.1826Z" stroke="#BCBCBC" stroke-linecap="round" stroke-linejoin="round"/>
<path id="Vector_2" d="M20.5289 19.1825C17.7691 23.2673 14.3407 26.8209 10.3986 29.683C6.23815 26.7195 2.79384 23.2632 0.235352 19.1825C2.79972 14.9285 6.27266 11.3404 10.3869 8.69427C14.3982 11.4692 17.8441 15.0327 20.5289 19.1825Z" stroke="#BCBCBC" stroke-linecap="round" stroke-linejoin="round"/>
<path id="Vector_3" d="M10.3872 1.28418V8.69183L15.7398 6.70149L14.8893 12.3042L19.038 12.3944L18.4844 16.2287" stroke="#BCBCBC" stroke-linecap="round" stroke-linejoin="round"/>
<path id="Vector_4" d="M10.3873 1.06955V8.69184L5.11478 6.73078L5.75558 12.2505L1.84717 12.3018L2.18406 16.2288" stroke="#BCBCBC" stroke-linecap="round" stroke-linejoin="round"/>
<path id="Vector_5" d="M10.3872 1.28418V8.69183L15.7398 6.70149L14.8893 12.3042L19.038 12.3944L18.4844 16.2287" stroke="#BCBCBC" stroke-linecap="round" stroke-linejoin="round"/>
<path id="Vector_6" d="M10.3873 1.43542V8.69185L5.11478 6.73078L5.75558 12.2505L1.84717 12.3018L2.18406 16.2288" stroke="#BCBCBC" stroke-linecap="round" stroke-linejoin="round"/>
<path id="Vector_7" d="M10.3872 37.037V29.7099L15.7398 31.7002L14.8893 26.0975L19.038 26.0073L18.4844 22.1729" stroke="#BCBCBC" stroke-linecap="round" stroke-linejoin="round"/>
<path id="Vector_8" d="M10.3873 37.037V29.7099L5.11478 31.6709L5.75558 26.1512L1.84717 26.0999L2.18406 22.1729" stroke="#BCBCBC" stroke-linecap="round" stroke-linejoin="round"/>
<path id="Vector_9" d="M0.473633 19.1923L3.925 19.2023" stroke="#BCBCBC" stroke-linecap="round" stroke-linejoin="round"/>
<path id="Vector_10" d="M4.14861 14.1335L3.9248 19.2021V23.8047" stroke="#BCBCBC" stroke-linecap="round" stroke-linejoin="round"/>
<path id="Vector_11" d="M10.387 29.7098L3.9248 19.2021L10.387 8.69183" stroke="#BCBCBC" stroke-linecap="round" stroke-linejoin="round"/>
<path id="Vector_12" d="M0.473633 19.1923L3.925 19.2023" stroke="#BCBCBC" stroke-linecap="round" stroke-linejoin="round"/>
<path id="Vector_13" d="M4.14861 14.1335L3.9248 19.2021V24.0145" stroke="#BCBCBC" stroke-linecap="round" stroke-linejoin="round"/>
<path id="Vector_14" d="M10.387 29.7098L3.9248 19.2021L10.387 8.69183" stroke="#BCBCBC" stroke-linecap="round" stroke-linejoin="round"/>
<path id="Vector_15" d="M20.3005 19.1948L16.8491 19.2022" stroke="#BCBCBC" stroke-linecap="round" stroke-linejoin="round"/>
<path id="Vector_16" d="M16.6348 14.3214L16.8492 19.2021V23.8047" stroke="#BCBCBC" stroke-linecap="round" stroke-linejoin="round"/>
<path id="Vector_17" d="M10.3848 29.7098L16.8493 19.2021L10.3895 8.69183" stroke="#BCBCBC" stroke-linecap="round" stroke-linejoin="round"/>
</g>
<defs>
<clipPath id="clip0_873_383">
<rect width="20.7742" height="37.0968" fill="white" transform="translate(0 0.645142)"/>
</clipPath>
</defs>
</svg>
