<svg width="25" height="38" viewBox="0 0 25 38" fill="none" xmlns="http://www.w3.org/2000/svg">
<g id="OBJECTS" clip-path="url(#clip0_873_367)">
<path id="Vector" d="M0.256348 29.9606V8.42908L7.58201 0.908569H16.9039L24.227 8.42908V29.9606L16.9039 37.4785H7.58201L0.256348 29.9606Z" stroke="#BCBCBC" stroke-linecap="round" stroke-linejoin="round"/>
<path id="Vector_2" d="M12.2417 5.63161C13.8557 5.63161 15.3387 6.68527 16.5293 8.42908H16.7012V0.908569H7.60254V8.42908H7.95407C9.14465 6.68 10.6277 5.63161 12.2417 5.63161Z" stroke="#BCBCBC" stroke-linecap="round" stroke-linejoin="round"/>
<path id="Vector_3" d="M16.7012 37.4785V29.9606H16.5293C15.3387 31.7071 13.8557 32.7581 12.2417 32.7581C10.6277 32.7581 9.14465 31.7044 7.95407 29.9606H7.60254V37.4785H16.7012Z" stroke="#BCBCBC" stroke-linecap="round" stroke-linejoin="round"/>
<path id="Vector_4" d="M5.17519 19.1949C5.17519 15.1146 6.11688 11.4663 7.60254 8.97962V8.42908H0.256348V29.9606H7.60254V29.4075C6.11688 26.9208 5.17519 23.2725 5.17519 19.1949Z" stroke="#BCBCBC" stroke-linecap="round" stroke-linejoin="round"/>
<path id="Vector_5" d="M19.3112 19.1949C19.3112 23.4385 18.2848 27.2238 16.7017 29.7104V29.9738H24.2275V8.42908H16.7017V8.67669C18.2925 11.1633 19.3112 14.9486 19.3112 19.1949Z" stroke="#BCBCBC" stroke-linecap="round" stroke-linejoin="round"/>
<path id="Vector_6" d="M16.7017 8.67669V8.42908H16.5298C16.5862 8.51074 16.6453 8.58976 16.7017 8.67669Z" stroke="#BCBCBC" stroke-linecap="round" stroke-linejoin="round"/>
<path id="Vector_7" d="M16.5298 29.9606H16.7017V29.6972C16.6453 29.7999 16.5862 29.8842 16.5298 29.9606Z" stroke="#BCBCBC" stroke-linecap="round" stroke-linejoin="round"/>
<path id="Vector_8" d="M7.60254 29.4075V29.9606H7.95407C7.83347 29.7815 7.71544 29.5998 7.60254 29.4075Z" stroke="#BCBCBC" stroke-linecap="round" stroke-linejoin="round"/>
<path id="Vector_9" d="M7.95407 8.42908H7.60254V8.97962C7.71544 8.78732 7.83347 8.60557 7.95407 8.42908Z" stroke="#BCBCBC" stroke-linecap="round" stroke-linejoin="round"/>
<path id="Vector_10" d="M7.9541 29.9606C9.14468 31.7071 10.6278 32.7581 12.2417 32.7581C13.8557 32.7581 15.3388 31.7044 16.5294 29.9606" stroke="#BCBCBC" stroke-linecap="round" stroke-linejoin="round"/>
<path id="Vector_11" d="M16.7017 29.7104C18.2925 27.2237 19.3112 23.4385 19.3112 19.1948C19.3112 14.9512 18.2848 11.1633 16.7017 8.67667" stroke="#BCBCBC" stroke-linecap="round" stroke-linejoin="round"/>
<path id="Vector_12" d="M24.2274 8.42908L19.3086 19.1949L24.2274 29.9606" stroke="#BCBCBC" stroke-linecap="round" stroke-linejoin="round"/>
<path id="Vector_13" d="M0.256348 8.42908L5.17262 19.1949L0.256348 29.9606" stroke="#BCBCBC" stroke-linecap="round" stroke-linejoin="round"/>
<path id="Vector_14" d="M16.9039 37.4785L12.2417 32.7581L7.60254 37.4785" stroke="#BCBCBC" stroke-linecap="round" stroke-linejoin="round"/>
<path id="Vector_15" d="M16.9039 0.908569L11.9287 5.64478L7.60254 0.908569" stroke="#BCBCBC" stroke-linecap="round" stroke-linejoin="round"/>
</g>
<defs>
<clipPath id="clip0_873_367">
<rect width="24.4839" height="37.0968" fill="white" transform="translate(0 0.645142)"/>
</clipPath>
</defs>
</svg>
