<svg width="41" height="38" viewBox="0 0 41 38" fill="none" xmlns="http://www.w3.org/2000/svg">
<g id="OBJECTS" clip-path="url(#clip0_873_421)">
<path id="Vector" d="M0.370117 30.5511V7.45266L7.44635 0.370239H33.5541L40.6303 7.45266V30.5511L33.5541 37.6298H7.44635L0.370117 30.5511Z" stroke="#BCBCBC" stroke-linecap="round" stroke-linejoin="round"/>
<path id="Vector_2" d="M3.56934 28.7147V9.28897L9.52107 3.33203H31.4785C33.8015 5.65705 35.1072 6.96025 37.4302 9.28897V28.7147L31.4785 34.668H9.52107L3.56934 28.7147Z" stroke="#BCBCBC" stroke-linecap="round" stroke-linejoin="round"/>
<path id="Vector_3" d="M7.26855 26.5933V11.4141L11.9182 6.75293H29.0817L33.7314 11.4104V26.5896L29.0817 31.2471H11.9182L7.26855 26.5933Z" stroke="#BCBCBC" stroke-linecap="round" stroke-linejoin="round"/>
<path id="Vector_4" d="M0.370117 7.45264L7.2688 11.4104" stroke="#BCBCBC" stroke-linecap="round" stroke-linejoin="round"/>
<path id="Vector_5" d="M7.44629 0.370239L11.9184 6.75294" stroke="#BCBCBC" stroke-linecap="round" stroke-linejoin="round"/>
<path id="Vector_6" d="M33.5537 0.370239L29.0815 6.75294" stroke="#BCBCBC" stroke-linecap="round" stroke-linejoin="round"/>
<path id="Vector_7" d="M40.6301 7.45264L33.7314 11.4104" stroke="#BCBCBC" stroke-linecap="round" stroke-linejoin="round"/>
<path id="Vector_8" d="M40.6301 30.551L33.7314 26.5933" stroke="#BCBCBC" stroke-linecap="round" stroke-linejoin="round"/>
<path id="Vector_9" d="M33.5537 37.6298L29.0815 31.2471" stroke="#BCBCBC" stroke-linecap="round" stroke-linejoin="round"/>
<path id="Vector_10" d="M7.44629 37.6298L11.9184 31.2471" stroke="#BCBCBC" stroke-linecap="round" stroke-linejoin="round"/>
<path id="Vector_11" d="M0.370117 30.551L7.2688 26.5933" stroke="#BCBCBC" stroke-linecap="round" stroke-linejoin="round"/>
</g>
<defs>
<clipPath id="clip0_873_421">
<rect width="41" height="38" fill="white"/>
</clipPath>
</defs>
</svg>
