<svg width="46" height="26" viewBox="0 0 46 26" fill="none" xmlns="http://www.w3.org/2000/svg">
<g id="OBJECTS" clip-path="url(#clip0_873_401)">
<path id="Vector" d="M33.514 18.4388H11.7443L8.79395 15.4673V9.7585C9.93972 8.60228 10.5899 7.94902 11.7386 6.78702H33.5083L36.4644 9.7585V15.4673L33.514 18.4388Z" stroke="#696969" stroke-linecap="round" stroke-linejoin="round"/>
<path id="Vector_2" d="M39.5294 24.9368H5.72905L0.286621 19.4447V5.7811L5.72905 0.289062H39.5294L44.9718 5.7811V19.4447L39.5294 24.9368Z" stroke="#696969" stroke-linecap="round" stroke-linejoin="round"/>
<path id="Vector_3" d="M35.8397 21.101H9.41812L5.45947 17.1005V8.13978L9.41812 4.13348H35.8397L39.7983 8.12822V17.0889L35.8397 21.101Z" stroke="#696969" stroke-linecap="round" stroke-linejoin="round"/>
<path id="Vector_4" d="M5.729 0.289062L11.7386 6.78701" stroke="#696969" stroke-linecap="round" stroke-linejoin="round"/>
<path id="Vector_5" d="M0.286621 5.7811L8.79399 9.75849" stroke="#696969" stroke-linecap="round" stroke-linejoin="round"/>
<path id="Vector_6" d="M0.286621 19.4447L8.79399 15.4673" stroke="#696969" stroke-linecap="round" stroke-linejoin="round"/>
<path id="Vector_7" d="M5.729 24.9368L11.7386 18.4388" stroke="#696969" stroke-linecap="round" stroke-linejoin="round"/>
<path id="Vector_8" d="M39.5291 24.9368L33.5195 18.4388" stroke="#696969" stroke-linecap="round" stroke-linejoin="round"/>
<path id="Vector_9" d="M44.9717 19.4447L36.4644 15.4673" stroke="#696969" stroke-linecap="round" stroke-linejoin="round"/>
<path id="Vector_10" d="M44.9717 5.7811L36.4644 9.75849" stroke="#696969" stroke-linecap="round" stroke-linejoin="round"/>
<path id="Vector_11" d="M39.5291 0.289062L33.5195 6.78701" stroke="#696969" stroke-linecap="round" stroke-linejoin="round"/>
</g>
<defs>
<clipPath id="clip0_873_401">
<rect width="45.2581" height="25.2258" fill="white"/>
</clipPath>
</defs>
</svg>
